# xmcd
#
# Track frame offsets:
#	150
#	12682
#	27458
#	48351
#	60505
#	74534
#	88005
#	99531
#	122878
#	136468
#	154387
#	170423
#	186202
#	203134
#	223940
#
# Disc length: 3359 seconds
#
# Revision: 1
# Processed by: cddbd v1.5.1PL2 Copyright (c) Steve Scherf et al.
# Submitted via: audiograbber 1.82.02
#
DISCID=e50d1d0f
DTITLE=No Speed Limit - Sweet Virginia
DYEAR=2006
DGENRE=Blues
TTITLE0=Sweet Virginia
TTITLE1=Blue Ridge Mountain Home
TTITLE2=New East Virginia Blues
TTITLE3=Born A Rambler
TTITLE4=Henry Box Brown
TTITLE5=Whiplash
TTITLE6=Blue Night
TTITLE7=Wayfaring Stranger
TTITLE8=Hometown
TTITLE9=Bluegrass Lullaby
TTITLE10=Jesus Is Alive And Well
TTITLE11=Grayson County Blues
TTITLE12=There's You
TTITLE13=Quecreek
TTITLE14=Ruby
EXTD=Absolutely Awesome Band.....
EXTT0=
EXTT1=
EXTT2=
EXTT3=
EXTT4=
EXTT5=
EXTT6=
EXTT7=
EXTT8=
EXTT9=
EXTT10=
EXTT11=
EXTT12=
EXTT13=
EXTT14=
PLAYORDER=
